<svg height="512" viewBox="0 0 512 512" width="512" xmlns="http://www.w3.org/2000/svg"><g><g fill="#57a4ff"><g><path d="m312 392-8 24h-96l-8-24z"/><path d="m80 168v200h352v-200zm152 176a16 16 0 1 1 16-16 16 16 0 0 1 -16 16zm72 0a16 16 0 1 1 16-16 16 16 0 0 1 -16 16zm16-56h-115l-10-72h133z"/><path d="m80 168v200h352v-200zm152 176a16 16 0 1 1 16-16 16 16 0 0 1 -16 16zm72 0a16 16 0 1 1 16-16 16 16 0 0 1 -16 16zm16-56h-115l-10-72h133z"/><path d="m312 392-8 24h-96l-8-24z"/></g><path d="m280 104v44a19.994 19.994 0 0 1 -20 20h-8a19.994 19.994 0 0 1 -20-20v-44z"/><path d="m184 104v44a19.994 19.994 0 0 1 -20 20h-8a19.994 19.994 0 0 1 -20-20v-44z"/><path d="m88 104v44a19.994 19.994 0 0 1 -20 20h-8a19.994 19.994 0 0 1 -20-20v-44z"/><path d="m472 104v44a19.994 19.994 0 0 1 -20 20h-8a19.994 19.994 0 0 1 -20-20v-44z"/><path d="m376 104v44a19.994 19.994 0 0 1 -20 20h-8a19.994 19.994 0 0 1 -20-20v-44z"/><path d="m472 104h-432l32-48h368z"/></g><g fill="#004fac"><path d="m496 384h-32v-210.71a28.026 28.026 0 0 0 16-25.29v-44a8.038 8.038 0 0 0 -1.34-4.44l-.02-.02c0-.01-.01-.02-.02-.03l-31.96-47.95a8.033 8.033 0 0 0 -6.66-3.56h-368a8.033 8.033 0 0 0 -6.66 3.56l-31.96 47.95c-.01.01-.02.02-.02.03l-.02.02a8.038 8.038 0 0 0 -1.34 4.44v44a28.026 28.026 0 0 0 16 25.29v210.71h-32a8 8 0 0 0 -8 8v44a28.031 28.031 0 0 0 28 28h440a28.031 28.031 0 0 0 28-28v-44a8 8 0 0 0 -8-8zm-32-236a12.01 12.01 0 0 1 -12 12h-8a12.01 12.01 0 0 1 -12-12v-36h32zm-400 236v-208h4a27.8 27.8 0 0 0 4-.29v192.29a8 8 0 0 0 8 8h352a8 8 0 0 0 8-8v-192.29a27.8 27.8 0 0 0 4 .29h4v208zm236.9 16-2.67 8h-84.46l-2.67-8zm-192.9-224h8a27.9 27.9 0 0 0 20-8.43 27.9 27.9 0 0 0 20 8.43h8a27.9 27.9 0 0 0 20-8.43 27.9 27.9 0 0 0 20 8.43h8a27.9 27.9 0 0 0 20-8.43 27.9 27.9 0 0 0 20 8.43h8a27.9 27.9 0 0 0 20-8.43 27.9 27.9 0 0 0 20 8.43h8a27.9 27.9 0 0 0 20-8.43 27.9 27.9 0 0 0 20 8.43h8a27.9 27.9 0 0 0 20-8.43 27.9 27.9 0 0 0 20 8.43h8a27.9 27.9 0 0 0 20-8.43l.02.02c-.01.14-.02.27-.02.41v192h-336v-192c0-.14-.01-.27-.02-.41l.02-.02a27.9 27.9 0 0 0 20 8.43zm-12-28v-36h32v36a12.01 12.01 0 0 1 -12 12h-8a12.01 12.01 0 0 1 -12-12zm48 0v-36h32v36a12.01 12.01 0 0 1 -12 12h-8a12.01 12.01 0 0 1 -12-12zm48 0v-36h32v36a12.01 12.01 0 0 1 -12 12h-8a12.01 12.01 0 0 1 -12-12zm48 0v-36h32v36a12.01 12.01 0 0 1 -12 12h-8a12.01 12.01 0 0 1 -12-12zm48 0v-36h32v36a12.01 12.01 0 0 1 -12 12h-8a12.01 12.01 0 0 1 -12-12zm48 0v-36h32v36a12.01 12.01 0 0 1 -12 12h-8a12.01 12.01 0 0 1 -12-12zm48 0v-36h32v36a12.01 12.01 0 0 1 -12 12h-8a12.01 12.01 0 0 1 -12-12zm-307.72-84h359.44l21.33 32h-402.1zm-28.28 48h32v36a12.01 12.01 0 0 1 -12 12h-8a12.01 12.01 0 0 1 -12-12zm440 324a12.01 12.01 0 0 1 -12 12h-440a12.01 12.01 0 0 1 -12-12v-36h170.23l6.18 18.53a8 8 0 0 0 7.59 5.47h96a8 8 0 0 0 7.59-5.47l6.18-18.53h170.23z"/><path d="m136 416h-88a8 8 0 0 0 0 16h88a8 8 0 0 0 0-16z"/><path d="m168 416h-8a8 8 0 0 0 0 16h8a8 8 0 0 0 0-16z"/><path d="m168 200h17l15.07 113.058a8 8 0 0 0 7.93 6.942h1.376a24 24 0 1 0 45.248 0h26.752a24 24 0 1 0 45.248 0h1.376a8 8 0 0 0 0-16h-113l-1.067-8h106.067a8 8 0 0 0 7.951-7.116l8-72a8 8 0 0 0 -7.951-8.884h-125.8l-2.274-17.058a8 8 0 0 0 -7.926-6.942h-24a8 8 0 0 0 0 16zm72 128a8 8 0 1 1 -8-8 8.009 8.009 0 0 1 8 8zm72 0a8 8 0 1 1 -8-8 8.009 8.009 0 0 1 8 8zm7.062-104-6.222 56h-101.04l-7.467-56z"/><path d="m264 272a8 8 0 0 0 8-8v-24a8 8 0 0 0 -16 0v24a8 8 0 0 0 8 8z"/><path d="m232 272a8 8 0 0 0 8-8v-24a8 8 0 0 0 -16 0v24a8 8 0 0 0 8 8z"/><path d="m296 272a8 8 0 0 0 8-8v-24a8 8 0 0 0 -16 0v24a8 8 0 0 0 8 8z"/><path d="m376 88h48a8 8 0 0 0 0-16h-48a8 8 0 0 0 0 16z"/><path d="m344 88h8a8 8 0 0 0 0-16h-8a8 8 0 0 0 0 16z"/></g></g></svg>