<svg height="512" viewBox="0 0 64 64" width="512" xmlns="http://www.w3.org/2000/svg"><g id="growth"><path d="m57 53.27a2.448 2.448 0 0 1 -1.63 2.31l-15.37 5.42h-15l-12-4h-4v-13l5-2h6l2.34.47 12.66 2.53 2 2v3h-14l9 5h8l2-.59 11.86-3.49a2.4 2.4 0 0 1 .69-.1 2.454 2.454 0 0 1 2.45 2.45z" fill="#ffdaaa"/><path d="m31 48-12.66-2.53-2.34-.47h-6l-1 .4v-1.4l5-2h6l2.34.47 12.66 2.53 2 2v3h-4z" fill="#ffb655"/><path d="m57 53.27a2.448 2.448 0 0 1 -1.63 2.31l-2.38.84a.757.757 0 0 0 .01-.15 2.454 2.454 0 0 0 -2.45-2.45 2.4 2.4 0 0 0 -.69.1l-11.86 3.49-2 .59h-8l-8-5 5.4-2 6.6 4h8l2-.59 11.86-3.49a2.4 2.4 0 0 1 .69-.1 2.454 2.454 0 0 1 2.45 2.45z" fill="#ffb655"/><path d="m52.5 32.62v.05a13.22 13.22 0 0 1 -.26 2.43 6.721 6.721 0 0 1 -2.36 4.24c-2.72 1.9-5.95 1.97-7.21.16s-.1-4.82 2.62-6.72 7.21-.16 7.21-.16z" fill="#ffde55"/><path d="m52.5 23.28s.09 4.82-2.62 6.72-5.95 1.98-7.21.17-.1-4.82 2.62-6.72 7.21-.17 7.21-.17z" fill="#ffde55"/><path d="m52.5 32.62v.05a13.22 13.22 0 0 1 -.26 2.43 6.721 6.721 0 0 1 -2.36 4.24c-2.11 1.48-4.53 1.85-6.1 1.08a8.22 8.22 0 0 0 2.1-1.08 6.721 6.721 0 0 0 2.36-4.24 13.22 13.22 0 0 0 .26-2.43v-.05a12.835 12.835 0 0 0 -1.78-.5 10.824 10.824 0 0 1 5.78.5z" fill="#ffcd00"/><path d="m49.88 30c-2.12 1.48-4.55 1.86-6.11 1.09a8.838 8.838 0 0 0 2.11-1.09c2.71-1.9 2.62-6.72 2.62-6.72a12.123 12.123 0 0 0 -1.78-.49 10.759 10.759 0 0 1 5.78.49s.09 4.82-2.62 6.72z" fill="#ffcd00"/><circle cx="42" cy="12" fill="#ffde55" r="9"/><path d="m51 12a9 9 0 0 1 -17.04 4.04 9 9 0 0 0 12.08-12.08 8.993 8.993 0 0 1 4.96 8.04z" fill="#ffcd00"/><path d="m38.71 23.45c2.72 1.9 3.89 4.91 2.62 6.72s-4.49 1.73-7.21-.17-2.62-6.72-2.62-6.72 4.5-1.73 7.21.17z" fill="#ffde55"/><path d="m41.84 37.79a2.919 2.919 0 0 1 -.51 1.71c-1.26 1.81-4.49 1.74-7.21-.16a6.721 6.721 0 0 1 -2.36-4.24 13.22 13.22 0 0 1 -.26-2.43v-.05s4.5-1.74 7.21.16a6.659 6.659 0 0 1 3.13 5.01z" fill="#ffde55"/><path d="m41.33 30.17c-.94 1.36-2.99 1.65-5.1.92a2.738 2.738 0 0 0 1.1-.92c1.27-1.81.1-4.82-2.62-6.72a4.969 4.969 0 0 0 -1.42-.66c1.55-.32 3.8-.47 5.42.66 2.72 1.9 3.89 4.91 2.62 6.72z" fill="#ffcd00"/><path d="m41.84 37.79a2.919 2.919 0 0 1 -.51 1.71c-.94 1.36-2.99 1.66-5.11.92a2.615 2.615 0 0 0 1.11-.92 2.919 2.919 0 0 0 .51-1.71 6.659 6.659 0 0 0 -3.13-5.01 4.829 4.829 0 0 0 -1.42-.66c1.56-.31 3.81-.47 5.42.66a6.659 6.659 0 0 1 3.13 5.01z" fill="#ffcd00"/><path d="m9 57v2l-6 1v-20l6 1v3z" fill="#00d7df"/><path d="m55.63 34.55a9.538 9.538 0 0 0 -2.23-.42c.04-.32.06-.59.08-.82a9.584 9.584 0 0 1 2.67-.82 10.812 10.812 0 0 1 5.49.61l.72-1.86a12.724 12.724 0 0 0 -6.51-.73 11.641 11.641 0 0 0 -3.35 1.05 14.1 14.1 0 0 0 -2.37-.55 3.371 3.371 0 0 0 .32-.19c3.11-2.18 3.05-7.34 3.05-7.56a1.008 1.008 0 0 0 -.64-.91c-.21-.08-5.03-1.9-8.15.28a10.531 10.531 0 0 0 -1.71 1.52v-2.2a10 10 0 1 0 -2 0v2.2a10.531 10.531 0 0 0 -1.71-1.52 6.67 6.67 0 0 0 -3.86-1.07 13.17 13.17 0 0 0 -4.29.79 1.008 1.008 0 0 0 -.64.91c0 .22-.06 5.38 3.05 7.56a3.371 3.371 0 0 0 .32.19 14.356 14.356 0 0 0 -2.37.55 11.641 11.641 0 0 0 -3.35-1.05 12.74 12.74 0 0 0 -6.51.73l.72 1.86a10.923 10.923 0 0 1 5.49-.61 9.584 9.584 0 0 1 2.67.82c.02.23.04.5.08.82a9.345 9.345 0 0 0 -2.22.41 11.048 11.048 0 0 0 -6.62 5.88l1.82.82a9.23 9.23 0 0 1 5.39-4.79 8.232 8.232 0 0 1 2.01-.35 7.134 7.134 0 0 0 2.57 4.05 8.684 8.684 0 0 0 4.7 1.66h.15a4.929 4.929 0 0 0 2.6-.67v12.52l-1.14.34h-7.6l-5.4-3h10.14a1 1 0 0 0 1-1v-3a1.033 1.033 0 0 0 -.29-.71l-2-2a1.014 1.014 0 0 0 -.51-.27l-15-3a1.355 1.355 0 0 0 -.2-.02h-6a.937.937 0 0 0 -.37.07l-3.63 1.45v-1.52a1 1 0 0 0 -.84-.99l-6-1a1.05 1.05 0 0 0 -.81.23 1.011 1.011 0 0 0 -.35.76v20a1.011 1.011 0 0 0 .35.76.987.987 0 0 0 .65.24.86.86 0 0 0 .16-.01l6-1a1 1 0 0 0 .84-.99v-1h2.84l11.84 3.95a1.185 1.185 0 0 0 .32.05h15a.919.919 0 0 0 .33-.06l15.37-5.42a3.449 3.449 0 0 0 2.3-3.25 3.449 3.449 0 0 0 -4.42-3.31l-10.58 3.12v-11.94a4.929 4.929 0 0 0 2.6.67h.15a8.684 8.684 0 0 0 4.7-1.66 7.134 7.134 0 0 0 2.57-4.05 7.875 7.875 0 0 1 2.02.36 9.2 9.2 0 0 1 5.38 4.78l1.82-.82a11.016 11.016 0 0 0 -6.61-5.87zm-47.63 23.6-4 .67v-17.64l4 .67zm37.86-33.88c1.69-1.18 4.37-.62 5.61-.27-.09 1.29-.48 4-2.17 5.18a6.717 6.717 0 0 1 -3.59 1.3 2.607 2.607 0 0 1 -2.22-.89c-.94-1.33.15-3.77 2.37-5.32zm-13.33-.27c1.44-.42 4.03-.84 5.61.27 2.22 1.55 3.31 3.99 2.37 5.32a2.636 2.636 0 0 1 -2.22.89 6.717 6.717 0 0 1 -3.59-1.3c-1.69-1.18-2.08-3.9-2.17-5.18zm7.98 14.93a2.624 2.624 0 0 1 -2.22.88 6.784 6.784 0 0 1 -3.59-1.29c-1.69-1.19-2.08-3.9-2.17-5.18 1.24-.36 3.92-.92 5.61.26a6.694 6.694 0 0 1 2.44 2.94 2.6 2.6 0 0 1 -.07 2.39zm-.78-6.61a4.334 4.334 0 0 0 1.27-.51v1.7a9.605 9.605 0 0 0 -1.27-1.19zm14.42 19.56a1.413 1.413 0 0 1 1.27.23 1.446 1.446 0 0 1 -.38 2.52l-15.21 5.37h-14.67l-11.84-3.95a1.185 1.185 0 0 0 -.32-.05h-3v-11.32l4.19-1.68h5.71l14.61 2.92 1.49 1.49v1.59h-13a1 1 0 0 0 -.49 1.87l9 5a.947.947 0 0 0 .49.13h8a.863.863 0 0 0 .28-.04zm-12.15-31.88a8 8 0 1 1 8-8 8.011 8.011 0 0 1 -8 8zm1 11.81a4.334 4.334 0 0 0 1.27.51 9.605 9.605 0 0 0 -1.27 1.19zm6.3 6.71a6.784 6.784 0 0 1 -3.59 1.29 2.613 2.613 0 0 1 -2.22-.88 2.6 2.6 0 0 1 -.07-2.39 6.694 6.694 0 0 1 2.44-2.94 4.648 4.648 0 0 1 2.69-.71 10.793 10.793 0 0 1 2.92.45c-.09 1.28-.48 3.99-2.17 5.18z"/><path d="m43 18v-2h1a1 1 0 0 0 1-1v-3a1 1 0 0 0 -1-1h-3v-1h4v-2h-2v-2h-2v2h-1a1 1 0 0 0 -1 1v3a1 1 0 0 0 1 1h3v1h-4v2h2v2z"/><path d="m54 8h2v-2h2v-2h-2v-2h-2v2h-2v2h2z"/><path d="m58 8v2h-2v2h2v2h2v-2h2v-2h-2v-2z"/><path d="m28 8h2v-2h2v-2h-2v-2h-2v2h-2v2h2z"/><path d="m24 14h2v-2h2v-2h-2v-2h-2v2h-2v2h2z"/></g></svg>