<svg height="480pt" viewBox="-31 0 479 480" width="480pt" xmlns="http://www.w3.org/2000/svg"><g fill="#bddbff"><path d="m200.5 141.519531c-8.863281-13.445312-23.894531-21.53125-40-21.519531l-24 56v80h32c0-17.671875 14.328125-32 32-32h8v-56c.039062-9.425781-2.75-18.648438-8-26.480469zm0 0"/><path d="m112.5 120c-16.105469-.011719-31.136719 8.074219-40 21.519531-5.25 7.832031-8.039062 17.054688-8 26.480469v56c14.1875 9.554688 27.5625 20.257812 40 32h32v-80zm0 0"/><path d="m256.5 120c-16.105469-.011719-31.136719 8.074219-40 21.519531-5.25 7.832031-8.039062 17.054688-8 26.480469v56h8c17.671875 0 32 14.328125 32 32h32v-80zm0 0"/><path d="m304.5 120c16.105469-.011719 31.136719 8.074219 40 21.519531 5.25 7.832031 8.039062 17.054688 8 26.480469v56c-14.1875 9.554688-27.5625 20.257812-40 32h-32v-80zm0 0"/><path d="m216.5 224h-16c-17.671875 0-32 14.328125-32 32v8h14.113281c6.058594 0 11.601563-3.425781 14.3125-8.847656l3.574219-7.152344c4.902344 9.804688 14.925781 16 25.886719 16h22.113281v-8c0-17.671875-14.328125-32-32-32zm0 0"/><path d="m136.5 464c0 4.417969 3.582031 8 8 8h64v-80l-24-56c-16.105469-.011719-31.136719 8.074219-40 21.519531-5.25 7.832031-8.039062 17.054688-8 26.480469zm0 0"/><path d="m272.5 357.519531c-8.863281-13.445312-23.894531-21.53125-40-21.519531l-24 56v80h64c4.417969 0 8-3.582031 8-8v-80c.039062-9.425781-2.75-18.648438-8-26.480469zm0 0"/><path d="m124.925781 39.152344 3.574219-7.152344c4.902344 9.804688 14.925781 16 25.886719 16h22.113281v-8c0-17.671875-14.328125-32-32-32h-16c-17.671875 0-32 14.328125-32 32v8h14.113281c6.058594 0 11.601563-3.425781 14.3125-8.847656zm0 0"/><path d="m320.5 64v-16h-22.113281c-10.960938 0-20.984375-6.195312-25.886719-16l-3.574219 7.152344c-2.710937 5.421875-8.253906 8.847656-14.3125 8.847656h-14.113281v16c0 22.089844 17.910156 40 40 40s40-17.910156 40-40zm0 0"/><path d="m268.925781 39.152344 3.574219-7.152344c4.902344 9.804688 14.925781 16 25.886719 16h22.113281v-8c0-17.671875-14.328125-32-32-32h-16c-17.671875 0-32 14.328125-32 32v8h14.113281c6.058594 0 11.601563-3.425781 14.3125-8.847656zm0 0"/><path d="m304.5 120h-48l24 56zm0 0"/><path d="m310.613281 264c6.058594 0 11.601563-3.425781 14.3125-8.847656l3.574219-7.152344c4.902344 9.804688 14.925781 16 25.886719 16h22.113281v-8c0-17.671875-14.328125-32-32-32h-16c-17.671875 0-32 14.328125-32 32v8zm0 0"/><path d="m360.5 336-24 56v80h64c4.417969 0 8-3.582031 8-8v-80c0-26.507812-21.492188-48-48-48zm0 0"/><path d="m280.5 464c0 4.417969-3.582031 8-8 8h64v-80l-24-56c-16.105469-.011719-31.136719 8.074219-40 21.519531 5.25 7.832031 8.039062 17.054688 8 26.480469zm0 0"/><path d="m88.5 224h-16c-17.671875 0-32 14.328125-32 32v8h22.113281c10.960938 0 20.984375-6.195312 25.886719-16l3.574219 7.152344c2.710937 5.421875 8.253906 8.847656 14.3125 8.847656h14.113281v-8c0-17.671875-14.328125-32-32-32zm0 0"/><path d="m80.5 472h64c-4.417969 0-8-3.582031-8-8v-80c-.039062-9.425781 2.75-18.648438 8-26.480469-8.863281-13.445312-23.894531-21.53125-40-21.519531l-24 56zm0 0"/><path d="m56.5 336c-26.507812 0-48 21.492188-48 48v80c0 4.417969 3.582031 8 8 8h64v-80zm0 0"/></g><path d="m240.5 384h16v16h-16zm0 0" fill="#3d9ae2"/><path d="m184.5 64v-24c-.027344-22.082031-17.917969-39.9726562-40-40h-16c-22.082031.0273438-39.972656 17.917969-40 40v24c0 26.507812 21.492188 48 48 48s48-21.492188 48-48zm-56-48h16c13.253906 0 24 10.746094 24 24h-14.113281c-7.925781.015625-15.171875-4.472656-18.6875-11.574219-1.503907-2.523437-4.222657-4.070312-7.160157-4.070312-2.933593 0-5.65625 1.546875-7.160156 4.070312l-3.574218 7.148438c-1.351563 2.734375-4.144532 4.453125-7.191407 4.425781h-6.113281c0-13.253906 10.746094-24 24-24zm8 80c-17.671875 0-32-14.328125-32-32v-8h6.113281c7.488281.03125 14.554688-3.464844 19.078125-9.433594 6.777344 6.101563 15.578125 9.460938 24.695313 9.433594h14.113281v8c0 17.671875-14.328125 32-32 32zm0 0" fill="#3d9ae2"/><path d="m168.5 168h16v16h-16zm0 0" fill="#3d9ae2"/><path d="m328.5 64v-24c-.027344-22.082031-17.917969-39.9726562-40-40h-16c-22.082031.0273438-39.972656 17.917969-40 40v24c0 26.507812 21.492188 48 48 48s48-21.492188 48-48zm-56-48h16c13.253906 0 24 10.746094 24 24h-14.113281c-7.925781.015625-15.171875-4.472656-18.6875-11.574219-1.503907-2.523437-4.222657-4.070312-7.160157-4.070312-2.933593 0-5.65625 1.546875-7.160156 4.070312l-3.574218 7.148438c-1.351563 2.734375-4.144532 4.453125-7.191407 4.425781h-6.113281c0-13.253906 10.746094-24 24-24zm8 80c-17.671875 0-32-14.328125-32-32v-8h6.113281c7.488281.03125 14.554688-3.464844 19.078125-9.433594 6.777344 6.101563 15.578125 9.460938 24.695313 9.433594h14.113281v8c0 17.671875-14.328125 32-32 32zm0 0" fill="#3d9ae2"/><path d="m312.5 168h16v16h-16zm0 0" fill="#3d9ae2"/><path d="m360.5 328h-48c-15.082031.011719-29.515625 6.136719-40 16.976562-10.484375-10.839843-24.917969-16.964843-40-16.976562h-48c-15.082031.007812-29.515625 6.132812-40 16.976562-10.484375-10.839843-24.917969-16.964843-40-16.976562h-48c-30.910156.039062-55.960938 25.089844-56 56v80c0 8.835938 7.164062 16 16 16h384c8.835938 0 16-7.164062 16-16v-80c-.039062-30.910156-25.089844-55.960938-56-56zm-12.136719 16-11.863281 27.6875-11.863281-27.6875zm-128 0-11.863281 27.6875-11.863281-27.6875zm-41 .328125 21.136719 49.3125v70.359375h-56v-80c-.03125-7.859375 2.292969-15.546875 6.671875-22.070312 6.390625-9.691407 16.683594-16.117188 28.191406-17.601563zm-87-.328125-11.863281 27.6875-11.863281-27.6875zm-75.863281 40c.0625-20.078125 15.023438-36.984375 34.945312-39.488281l21.054688 49.089843v70.398438h-56zm72 80v-70.398438l21.121094-49.273437c9.835937 1.253906 18.851562 6.136719 25.277344 13.6875-.214844.398437-.359376.800781-.558594 1.242187-.40625.796876-.761719 1.636719-1.121094 2.46875-.65625 1.503907-1.246094 3.027344-1.765625 4.585938-.296875.871094-.578125 1.75-.800781 2.648438-.457032 1.65625-.800782 3.335937-1.121094 5.03125-.144531.800781-.328125 1.601562-.4375 2.398437-.367188 2.519531-.566406 5.0625-.59375 7.609375v80zm128-70.398438 21.136719-49.3125c11.527343 1.5 21.832031 7.945313 28.230469 17.65625 4.363281 6.523438 6.675781 14.207032 6.632812 22.054688v80h-56zm72-9.601562c-.015625-2.546875-.199219-5.085938-.550781-7.609375-.113281-.796875-.296875-1.597656-.441407-2.398437-.304687-1.679688-.65625-3.34375-1.113281-4.976563-.253906-.917969-.550781-1.824219-.855469-2.726563-.496093-1.503906-1.070312-2.984374-1.703124-4.441406-.382813-.871094-.75-1.742187-1.183594-2.609375-.191406-.390625-.335938-.796875-.542969-1.199219 6.429687-7.539062 15.441406-12.40625 25.269531-13.65625l21.121094 49.21875v70.398438h-40zm112 80h-56v-70.398438l21.054688-49.121093c19.933593 2.503906 34.902343 19.429687 34.945312 39.519531zm0 0" fill="#3d9ae2"/><path d="m368.5 384h16v16h-16zm0 0" fill="#3d9ae2"/><path d="m128.5 280v-16h32v16c0 26.507812 21.492188 48 48 48s48-21.492188 48-48v-16h32v16c0 26.507812 21.492188 48 48 48s48-21.492188 48-48v-24c-.019531-15.886719-9.441406-30.253906-24-36.609375v-51.390625c.042969-10.992188-3.203125-21.75-9.328125-30.878906-10.332031-15.699219-27.875-25.140625-46.671875-25.121094h-48c-18.769531-.027344-36.292969 9.390625-46.632812 25.054688-.519532.800781-.886719 1.601562-1.367188 2.402343-.464844-.800781-.800781-1.601562-1.328125-2.328125-10.332031-15.703125-27.875-25.148437-46.671875-25.128906h-48c-18.769531-.027344-36.292969 9.390625-46.632812 25.054688-6.144532 9.148437-9.40625 19.925781-9.367188 30.945312v51.390625c-14.558594 6.355469-23.980469 20.722656-24 36.609375v24c0 26.507812 21.492188 48 48 48s48-21.492188 48-48zm88-48c13.253906 0 24 10.746094 24 24h-14.113281c-7.925781.015625-15.171875-4.472656-18.6875-11.574219-1.503907-2.523437-4.222657-4.070312-7.160157-4.070312-2.933593 0-5.65625 1.546875-7.160156 4.070312l-3.574218 7.148438c-1.34375 2.722656-4.121094 4.4375-7.152344 4.425781h-6.152344c0-13.253906 10.746094-24 24-24zm-8 80c-17.671875 0-32-14.328125-32-32v-8h6.113281c7.488281.03125 14.554688-3.464844 19.078125-9.433594 6.777344 6.101563 15.578125 9.460938 24.695313 9.433594h14.113281v8c0 17.671875-14.328125 32-32 32zm128 0c-17.671875 0-32-14.328125-32-32v-8h6.113281c7.488281.03125 14.554688-3.464844 19.078125-9.433594 6.777344 6.101563 15.578125 9.460938 24.695313 9.433594h14.113281v8c0 17.671875-14.328125 32-32 32zm32-56h-14.113281c-7.925781.015625-15.171875-4.472656-18.6875-11.574219-1.503907-2.523437-4.222657-4.070312-7.160157-4.070312-2.933593 0-5.65625 1.546875-7.160156 4.070312l-3.574218 7.148438c-1.34375 2.722656-4.121094 4.4375-7.152344 4.425781h-6.152344c0-13.253906 10.746094-24 24-24h16c13.253906 0 24 10.746094 24 24zm-30.632812-110.007812c4.355468 6.511718 6.667968 14.175781 6.632812 22.007812v48h-16c-19 .023438-35.371094 13.386719-39.199219 32h-.800781v-70.398438l21.136719-49.3125c11.539062 1.507813 21.847656 7.972657 28.230469 17.703126zm-45.503907-17.992188-11.863281 27.6875-11.863281-27.6875zm-69.191406 17.929688c6.390625-9.691407 16.683594-16.117188 28.191406-17.601563l21.136719 49.3125v70.359375h-16.800781c-3.828125-18.613281-20.199219-31.976562-39.199219-32v-48c-.03125-7.859375 2.292969-15.546875 6.671875-22.070312zm-29.304687.0625c4.355468 6.511718 6.667968 14.175781 6.632812 22.007812v48c-19 .023438-35.371094 13.386719-39.199219 32h-16.800781v-70.398438l21.136719-49.3125c11.539062 1.507813 21.847656 7.972657 28.230469 17.703126zm-45.503907-17.992188-11.863281 27.6875-11.863281-27.6875zm-75.863281 40c-.03125-7.859375 2.292969-15.546875 6.671875-22.070312 6.390625-9.691407 16.683594-16.117188 28.191406-17.601563l21.136719 49.3125v70.359375h-.800781c-3.828125-18.613281-20.199219-31.976562-39.199219-32h-16zm0 64h16c13.253906 0 24 10.746094 24 24h-6.113281c-3.03125.011719-5.808594-1.703125-7.152344-4.425781l-3.574219-7.148438c-1.351562-2.71875-4.125-4.433593-7.160156-4.433593s-5.808594 1.714843-7.160156 4.433593c-3.519532 7.117188-10.789063 11.605469-18.726563 11.574219h-14.113281c0-13.253906 10.746094-24 24-24zm8 80c-17.671875 0-32-14.328125-32-32v-8h14.113281c9.117188.027344 17.917969-3.332031 24.695313-9.433594 4.523437 5.96875 11.589844 9.464844 19.078125 9.433594h6.113281v8c0 17.671875-14.328125 32-32 32zm0 0" fill="#3d9ae2"/><path d="m112.5 384h16v16h-16zm0 0" fill="#3d9ae2"/></svg>