<svg height="512" viewBox="0 0 60 42" width="512" xmlns="http://www.w3.org/2000/svg"><g id="Page-1" fill="none" fill-rule="evenodd"><g id="020---Pickup-Truck" fill-rule="nonzero"><path id="Shape" d="m33 30v4h-30c-1.10320187-.0032948-1.9967052-.8967981-2-2v-2z" fill="#a4c2f7"/><path id="Shape" d="m33 12v18h-32v-16c.0032948-1.1032019.89679813-1.9967052 2-2z" fill="#e8edfc"/><path id="Rectangle-path" d="m30 12h3v18h-3z" fill="#cad9fc"/><path id="Shape" d="m59 20.11v11.89c-.0032948 1.1032019-.8967981 1.9967052-2 2h-24v-31c.0032948-1.10320187.8967981-1.9967052 2-2h5v12c.0032948 1.1032019.8967981 1.9967052 2 2h10.6l5.46 3.41c.5827034.3693183.9370306 1.0101228.94 1.7z" fill="#e8edfc"/><path id="Shape" d="m58.06 18.41-5.46-3.41h-3l5.46 3.41c.5827034.3693183.9370306 1.0101228.94 1.7v11.89c-.0032948 1.1032019-.8967981 1.9967052-2 2h3c1.1032019-.0032948 1.9967052-.8967981 2-2v-11.89c-.0029694-.6898772-.3572966-1.3306817-.94-1.7z" fill="#cad9fc"/><path id="Shape" d="m39 15h3c-1.1032019-.0032948-1.9967052-.8967981-2-2v-12h-3v12c.0032948 1.1032019.8967981 1.9967052 2 2z" fill="#cad9fc"/><path id="Shape" d="m52.6 15h-10.6c-1.1032019-.0032948-1.9967052-.8967981-2-2v-12.00002225l5.52.00002225c.8784358-.00413859 1.655234.56930928 1.91 1.41l3.13 10.16c.2823613.9197899.8856379 1.7075981 1.7 2.22z" fill="#a4c2f7"/><circle id="Oval" cx="46" cy="35" fill="#a4c2f7" r="6"/><circle id="Oval" cx="13" cy="35" fill="#a4c2f7" r="6"/><circle id="Oval" cx="46" cy="35" fill="#e8edfc" r="2"/><circle id="Oval" cx="13" cy="35" fill="#e8edfc" r="2"/><path id="Shape" d="m52.26 14.79c-.8143621-.5124019-1.4176387-1.3002101-1.7-2.22l-3.13-10.16c-.254766-.84069072-1.0315642-1.41413859-1.91-1.41l-3-.00002225c.8784358-.00411634 1.655234.56933153 1.91 1.41002225l3.13 10.16c.2823613.9197899.8856379 1.7075981 1.7 2.22l.34.21h3z" fill="#7facfa"/><path id="Shape" d="m3 34h3c-1.10320187-.0032948-1.9967052-.8967981-2-2v-18c.0032948-1.1032019.89679813-1.9967052 2-2h-3c-1.10320187.0032948-1.9967052.8967981-2 2v18c.0032948 1.1032019.89679813 1.9967052 2 2z" fill="#fff"/><path id="Rectangle-path" d="m3 11h8v2h-8z" fill="#fff"/><g fill="#428dff"><path id="Shape" d="m58.59 17.564-5.8-3.622c-.6118815-.3817315-1.0653524-.9715632-1.277-1.661l-3.123-10.164c-.383726-1.26149531-1.5494434-2.12196385-2.868-2.117h-10.522c-1.6568542 0-3 1.34314575-3 3v8h-21c-.5522847 0-1 .4477153-1 1s.4477153 1 1 1h21v2h-8c-.5522847 0-1 .4477153-1 1s.4477153 1 1 1h8v12h-15.413c-2.2054592-1.3333973-4.9685408-1.3333973-7.174 0h-7.413v-12h1c.55228475 0 1-.4477153 1-1s-.44771525-1-1-1h-1v-1c0-.5522847.44771525-1 1-1s1-.4477153 1-1-.44771525-1-1-1c-1.65685425 0-3 1.3431458-3 3v18c0 1.6568542 1.34314575 3 3 3h3c.00000008 3.8659932 3.13400681 6.9999999 7 6.9999999 3.8659932 0 6.9999999-3.1340067 7-6.9999999h19c0 3.8659932 3.1340068 7 7 7s7-3.1340068 7-7h4c1.6568542 0 3-1.3431458 3-3v-11.892c.0032752-1.0352148-.5304057-1.9981114-1.41-2.544zm-12.111-14.858 3.126 10.163c.1295349.3976864.3082525.7776294.532 1.131h-8.137c-.5522847 0-1-.4477153-1-1v-11.00000072l4.522.00000072c.4394793-.0005249.8277933.28594288.957.706zm-43.479 30.294c-.55228475 0-1-.4477153-1-1v-1h5.264c-.42632472.6107637-.75180176 1.2860273-.964 2zm10 7c-2.7614237 0-5-2.2385763-5-5s2.2385763-5 5-5 5 2.2385763 5 5c-.0033061 2.7600532-2.2399468 4.9966939-5 5zm6.7-7c-.2137437-.7142833-.5409172-1.389564-.969-2h13.269v2zm26.3 7c-2.7614237 0-5-2.2385763-5-5s2.2385763-5 5-5 5 2.2385763 5 5c-.0033061 2.7600532-2.2399468 4.9966939-5 5zm11-7h-4.3c-.8935021-2.952905-3.6148754-4.9726865-6.7-4.9726865s-5.8064979 2.0197815-6.7 4.9726865h-5.3v-30c0-.55228475.4477153-1 1-1h4v11c0 1.6568542 1.3431458 3 3 3h10.313l5.217 3.261c.2930879.1815918.4710029.5022173.47.847v.892h-3c-.5522847 0-1 .4477153-1 1s.4477153 1 1 1h3v9c0 .5522847-.4477153 1-1 1z"/><path id="Shape" d="m7.02 13c-.55228475.0027614-1.00223858-.4427153-1.005-.995s.44271525-1.0022386.995-1.005h.01c.55228475 0 1 .4477153 1 1s-.44771525 1-1 1z"/><path id="Shape" d="m46 32c-1.6568542 0-3 1.3431458-3 3s1.3431458 3 3 3 3-1.3431458 3-3-1.3431458-3-3-3zm0 4c-.5522847 0-1-.4477153-1-1s.4477153-1 1-1 1 .4477153 1 1-.4477153 1-1 1z"/><path id="Shape" d="m13 32c-1.6568542 0-3 1.3431458-3 3s1.3431458 3 3 3 3-1.3431458 3-3-1.3431458-3-3-3zm0 4c-.5522847 0-1-.4477153-1-1s.4477153-1 1-1 1 .4477153 1 1-.4477153 1-1 1z"/></g></g></g></svg>